<svg width="24" height="24" viewBox="0 0 24 24" fill="none" xmlns="http://www.w3.org/2000/svg">
<path d="M17.2929 5.29295C17.6834 4.90243 18.3164 4.90243 18.707 5.29295C19.0975 5.68348 19.0975 6.31649 18.707 6.70702L6.70696 18.707C6.31643 19.0975 5.68342 19.0975 5.29289 18.707C4.90237 18.3165 4.90237 17.6835 5.29289 17.293L17.2929 5.29295Z" fill="white"/>
<path d="M5.29273 5.29298C5.65885 4.92686 6.23785 4.90427 6.63063 5.22462L6.7068 5.29298L18.7068 17.293L18.7752 17.3692C19.0955 17.7619 19.0729 18.3409 18.7068 18.707C18.3407 19.0732 17.7617 19.0958 17.3689 18.7754L17.2927 18.707L5.29273 6.70704L5.22437 6.63087C4.90402 6.2381 4.92662 5.65909 5.29273 5.29298Z" fill="white"/>
</svg>
