<svg width="20" height="21" viewBox="0 0 20 21" fill="none" xmlns="http://www.w3.org/2000/svg">
<path d="M17.0503 0.5H2.94822C1.3267 0.5 0 1.8267 0 3.44822V17.5518C0 19.1733 1.3267 20.5 2.94822 20.5H17.0518C18.6733 20.5 20 19.1733 20 17.5518V3.44822C19.9985 1.8267 18.6733 0.5 17.0503 0.5ZM16.8609 11.1748H14.4876V19.7615H10.9364V11.1748H9.16012V8.21476H10.9364V6.43846C10.9364 4.02386 11.9388 2.58734 14.7912 2.58734H17.1623V5.54662H15.6794C14.5708 5.54662 14.4971 5.96158 14.4971 6.73328L14.4876 8.21476H17.1741L16.8609 11.1748Z" fill="#202020"/>
</svg>
