<svg width="393" height="350" viewBox="0 0 393 350" fill="none" xmlns="http://www.w3.org/2000/svg">
<path d="M139.893 104.592C143.3 92.8833 143.652 80.0233 140.179 66.852C132.136 36.8915 104.428 14.657 73.4322 14.213C61.9409 13.9072 50.5491 16.3951 40.2295 21.4644C29.91 26.5336 20.9694 34.0336 14.1712 43.3237C7.37293 52.6138 2.91909 63.4182 1.18997 74.8141C-0.53914 86.2099 0.50784 97.8588 4.24151 108.766C14.1891 138.252 43.5025 158.074 74.4021 156.729C87.967 156.078 99.907 151.889 110.182 145.072L158.076 180.422L123.049 228.396C111.372 224.969 98.5491 224.604 85.4194 228.075C55.5535 236.113 33.4094 263.882 32.9953 294.968C32.7066 306.483 35.2028 317.899 40.2703 328.241C45.3379 338.582 52.8262 347.541 62.0949 354.352C71.3635 361.163 82.1369 365.623 93.4938 367.35C104.851 369.078 116.453 368.022 127.309 364.272C156.7 354.322 176.438 324.942 175.068 293.951C174.406 280.345 170.219 268.367 163.412 258.055L198.642 210.23L352.587 323.352C370.638 336.616 395.619 321.396 392.191 299.2L392.164 299.024C391.158 292.506 387.544 286.571 382.243 282.519L139.893 104.592ZM76.9461 120.805C57.6276 123.788 39.4004 110.551 36.3809 90.9971C33.3613 71.4432 46.7463 53.3241 66.0648 50.3409C85.3833 47.3577 103.61 60.5952 106.63 80.149C109.65 99.7029 96.2646 117.822 76.9461 120.805ZM109.59 332.198C90.2715 335.182 72.0443 321.944 69.0248 302.39C66.0052 282.836 79.3902 264.717 98.7087 261.734C118.027 258.751 136.254 271.988 139.274 291.542C142.293 311.096 128.908 329.215 109.59 332.198ZM194.561 183.806C189.644 184.565 185.182 181.286 184.42 176.354C183.658 171.421 186.923 166.949 191.841 166.19C196.758 165.43 201.22 168.709 201.982 173.642C202.744 178.574 199.479 183.046 194.561 183.806ZM300.411 -14.525L202.602 119.437L243.167 149.245L340.976 15.2832C344.835 9.99789 346.49 3.2493 345.456 -3.44481L345.429 -3.62097C342.029 -25.6411 313.62 -32.617 300.411 -14.525Z" fill="white" fill-opacity="0.1"/>
</svg>
