<svg width="341" height="288" viewBox="0 0 341 288" fill="none" xmlns="http://www.w3.org/2000/svg">
<path d="M100.996 7.6238C72.7718 9.19729 46.3287 21.9159 27.4838 42.9816C8.63878 64.0473 -1.06443 91.7346 0.508725 119.953C2.08188 148.17 14.8025 174.608 35.8723 193.448C56.942 212.289 84.635 221.989 112.859 220.416L129.126 219.509C127.108 209.509 126.538 199.272 127.431 189.11L111.164 190.017C91.0042 191.141 71.2236 184.212 56.1737 170.754C41.1239 157.297 32.0377 138.413 30.9141 118.257C29.7904 98.1018 36.7212 78.3251 50.1819 63.2782C63.6426 48.2312 82.5305 39.1465 102.691 38.0226L224.312 31.2422C235.585 30.6115 246.857 32.4954 257.312 36.7576C267.766 41.0197 277.142 47.5535 284.759 55.8854C292.376 64.2173 298.045 74.1389 301.353 84.9314C304.662 95.7239 305.528 107.117 303.889 118.286C313.34 126.562 321.253 136.445 327.263 147.476C334.054 130.828 336.521 112.733 334.435 94.8759C332.349 77.0185 325.778 59.9791 315.334 45.344C304.889 30.7088 290.911 18.9537 274.7 11.1729C258.488 3.39215 240.572 -0.16128 222.617 0.843404L100.996 7.6238ZM157.62 202.674C156.962 190.824 159.085 178.985 163.818 168.102C168.552 157.218 175.766 147.593 184.883 139.993C194 132.393 204.769 127.03 216.328 124.332C227.887 121.634 239.918 121.676 251.458 124.454C262.998 127.232 273.729 132.67 282.793 140.333C291.857 147.996 299.003 157.671 303.66 168.587C308.318 179.503 310.358 191.357 309.617 203.201C308.876 215.046 305.376 226.553 299.395 236.805L340.082 273.202L319.784 295.892L279.082 259.511C268.047 267.721 254.993 272.789 241.308 274.175C227.623 275.562 213.817 273.215 201.359 267.386C188.901 261.556 178.256 252.461 170.554 241.067C162.853 229.672 158.383 216.405 157.62 202.674Z" fill="#202020" fill-opacity="0.05"/>
</svg>
