<svg width="301" height="300" viewBox="0 0 301 300" fill="none" xmlns="http://www.w3.org/2000/svg">
<path d="M56.5873 187.5C45.4627 187.5 34.5878 190.799 25.338 196.98C16.0881 203.161 8.87877 211.946 4.62154 222.224C0.364304 232.502 -0.749582 243.812 1.42074 254.724C3.59105 265.635 8.9481 275.658 16.8144 283.525C24.6808 291.391 34.7031 296.749 45.614 298.919C56.5249 301.09 67.8344 299.976 78.1123 295.718C88.3902 291.461 97.1748 284.251 103.355 275.001C109.536 265.751 112.835 254.875 112.835 243.75C112.835 228.832 106.909 214.524 96.3603 203.975C85.8118 193.426 71.5051 187.5 56.5873 187.5ZM56.5873 275C50.407 275 44.3654 273.167 39.2266 269.733C34.0878 266.3 30.0826 261.419 27.7174 255.709C25.3523 249.999 24.7335 243.715 25.9392 237.653C27.145 231.591 30.1211 226.023 34.4913 221.653C38.8615 217.283 44.4294 214.306 50.4911 213.1C56.5527 211.895 62.8357 212.514 68.5457 214.879C74.2556 217.244 79.1359 221.249 82.5696 226.388C86.0032 231.527 87.8359 237.569 87.8359 243.75C87.8359 247.854 87.0276 251.917 85.4572 255.709C83.8869 259.5 81.5851 262.945 78.6834 265.847C75.7817 268.749 72.3369 271.051 68.5457 272.621C64.7544 274.192 60.691 275 56.5873 275ZM3.99604 116.156L26.4169 93.75L3.99604 71.3438C1.65064 68.9982 0.333008 65.817 0.333008 62.5C0.333008 59.1829 1.65064 56.0017 3.99604 53.6562C6.34144 51.3107 9.52248 49.993 12.8394 49.993C16.1563 49.993 19.3373 51.3107 21.6827 53.6562L44.0879 76.0781L66.4931 53.6562C68.8385 51.3107 72.0196 49.993 75.3365 49.993C78.6534 49.993 81.8344 51.3107 84.1798 53.6562C86.5252 56.0017 87.8428 59.1829 87.8428 62.5C87.8428 65.817 86.5252 68.9982 84.1798 71.3438L61.759 93.75L84.1798 116.156C86.5252 118.502 87.8428 121.683 87.8428 125C87.8428 128.317 86.5252 131.498 84.1798 133.844C81.8344 136.189 78.6534 137.507 75.3365 137.507C72.0196 137.507 68.8385 136.189 66.4931 133.844L44.0879 111.422L21.6827 133.844C19.3373 136.189 16.1563 137.507 12.8394 137.507C9.52248 137.507 6.34144 136.189 3.99604 133.844C1.65064 131.498 0.333008 128.317 0.333008 125C0.333008 121.683 1.65064 118.502 3.99604 116.156ZM296.67 266.156C297.831 267.318 298.753 268.696 299.381 270.214C300.01 271.731 300.333 273.358 300.333 275C300.333 276.642 300.01 278.269 299.381 279.786C298.753 281.304 297.831 282.682 296.67 283.844C295.509 285.005 294.13 285.926 292.613 286.555C291.095 287.183 289.469 287.507 287.827 287.507C286.184 287.507 284.558 287.183 283.041 286.555C281.523 285.926 280.145 285.005 278.983 283.844L256.578 261.422L234.173 283.844C231.827 286.189 228.646 287.507 225.33 287.507C222.013 287.507 218.832 286.189 216.486 283.844C214.141 281.498 212.823 278.317 212.823 275C212.823 271.683 214.141 268.502 216.486 266.156L238.907 243.75L216.486 221.344C214.141 218.998 212.823 215.817 212.823 212.5C212.823 209.183 214.141 206.002 216.486 203.656C218.832 201.311 222.013 199.993 225.33 199.993C228.646 199.993 231.827 201.311 234.173 203.656L256.578 226.078L278.983 203.656C281.329 201.311 284.51 199.993 287.827 199.993C291.144 199.993 294.325 201.311 296.67 203.656C299.015 206.002 300.333 209.183 300.333 212.5C300.333 215.817 299.015 218.998 296.67 221.344L274.249 243.75L296.67 266.156ZM226.064 126.297C216.408 161.187 186.503 191.344 153.364 199.625C152.373 199.873 151.355 199.999 150.333 200C147.285 199.994 144.344 198.875 142.064 196.853C139.783 194.831 138.32 192.045 137.949 189.019C137.579 185.994 138.327 182.937 140.052 180.425C141.777 177.912 144.361 176.116 147.318 175.375C171.738 169.266 194.737 145.828 202.003 119.625C206.987 101.656 207.033 74.3125 179.019 46.3437L175.332 42.6719V75C175.332 78.3152 174.015 81.4946 171.671 83.8388C169.327 86.183 166.147 87.5 162.832 87.5C159.517 87.5 156.338 86.183 153.994 83.8388C151.65 81.4946 150.333 78.3152 150.333 75V12.5C150.333 9.18479 151.65 6.00537 153.994 3.66117C156.338 1.31696 159.517 0 162.832 0H225.33C228.645 0 231.824 1.31696 234.168 3.66117C236.512 6.00537 237.829 9.18479 237.829 12.5C237.829 15.8152 236.512 18.9946 234.168 21.3388C231.824 23.683 228.645 25 225.33 25H193.003L196.675 28.6562C225.173 57.1719 235.61 91.8438 226.064 126.297Z" fill="white" fill-opacity="0.1"/>
</svg>
