<svg style="display: none;" aria-hidden="true" xmlns="http://www.w3.org/2000/svg" xmlns:xlink="http://www.w3.org/1999/xlink"><symbol fill="currentColor" viewBox="0 0 16 10" id="svg-arrow1"><path stroke="currentColor" stroke-linecap="round" stroke-linejoin="round" d="M1 5h14m0 0-3.92-3.92M15 5l-3.92 3.92"/></symbol><symbol fill="currentColor" viewBox="0 0 17 18" id="svg-arrow2"><path stroke="currentColor" stroke-linecap="round" stroke-linejoin="round" stroke-width="2" d="M8.5 1.929V16.07m0 0L15.571 9m-7.07 7.071L1.428 9"/></symbol><symbol fill="none" viewBox="0 0 10 20" id="svg-arrow3"><path stroke="currentColor" stroke-linecap="round" stroke-linejoin="round" stroke-width="2" d="m1 1 8 9-8 9"/></symbol><symbol fill="currentColor" viewBox="0 0 24 24" id="svg-close"><path d="M17.293 5.293a1 1 0 1 1 1.414 1.414l-12 12a1 1 0 1 1-1.414-1.414l12-12Z"/><path d="M5.293 5.293a1 1 0 0 1 1.338-.068l.076.068 12 12 .068.076a1 1 0 0 1-1.406 1.406l-.076-.068-12-12-.069-.076a1 1 0 0 1 .069-1.338Z"/></symbol><symbol viewBox="0 0 20 22" id="svg-paperclip"><path stroke="currentColor" stroke-linecap="round" stroke-linejoin="round" stroke-width="1.5" d="m3.004 11.99 7.693 7.692a4.5 4.5 0 0 0 6.364-6.364L6.12 2.378a3 3 0 0 0-4.242 4.244L12.827 17.57a1.5 1.5 0 0 0 2.538-1.077 1.5 1.5 0 0 0-.426-1.054l-7.81-7.81m5.689 9.931.01.01"/></symbol><symbol fill="currentColor" viewBox="0 0 20 20" id="svg-send"><path d="M18.865 1.135A.757.757 0 0 0 18.07.96L1.413 7.017a.757.757 0 0 0 0 1.416L5.41 10.03a4.092 4.092 0 0 0 4.415-.912l2.36-2.367a.754.754 0 1 1 1.068 1.066l-2.373 2.372a4.11 4.11 0 0 0-.91 4.434l1.597 3.987a.758.758 0 0 0 .705.477.757.757 0 0 0 .696-.5L19.024 1.93a.757.757 0 0 0-.159-.795Z"/></symbol><symbol fill="currentColor" viewBox="0 0 20 18" id="svg-telegram"><path d="M17.889.616a1.485 1.485 0 0 1 2.041 1.61l-2.245 13.621c-.218 1.314-1.66 2.067-2.864 1.413-1.008-.548-2.505-1.391-3.852-2.271-.673-.441-2.736-1.852-2.482-2.856.218-.858 3.683-4.084 5.663-6.002.777-.753.423-1.188-.495-.495-2.28 1.72-5.938 4.338-7.148 5.074-1.068.65-1.624.76-2.29.65-1.213-.202-2.34-.515-3.258-.896-1.241-.515-1.181-2.222 0-2.719L17.888.616Z"/></symbol><symbol fill="currentColor" viewBox="0 0 26 26" id="svg-telegram2"><path d="M14.606.606C7.764-.29 1.485 4.536.59 11.379c-.895 6.841 3.931 13.12 10.773 14.016 6.841.895 13.12-3.932 14.016-10.773C26.274 7.78 21.448 1.5 14.606.606Zm4.648 9.18c-.442 1.934-1.87 6.588-2.566 8.729-.296.907-.683 1.17-1.01 1.166-.727-.032-1.203-.636-1.837-1.186-.996-.861-1.558-1.389-2.52-2.22-1.122-.967-.27-1.31.53-1.936.21-.161 3.76-2.634 3.857-2.886a.25.25 0 0 0-.033-.231c-.066-.072-.168-.06-.257-.06-.115.011-2 .937-5.683 2.774-.54.27-1.008.386-1.403.321-.445-.07-1.257-.416-1.861-.71-.749-.35-1.338-.566-1.232-.993.054-.22.393-.402 1.007-.562 3.825-1.1 6.365-1.827 7.632-2.165 3.634-.987 4.373-1.143 4.844-1.081.1.013.331.069.464.212a.5.5 0 0 1 .13.357c-.022.073-.027.3-.062.471Z"/></symbol><symbol fill="currentColor" viewBox="0 0 20 12" id="svg-vk"><path d="M19.196 11.999h-2.19c-.828 0-1.077-.677-2.562-2.178-1.297-1.263-1.845-1.42-2.173-1.42-.454 0-.578.126-.578.757v1.99c0 .537-.173.852-1.564.852a8.482 8.482 0 0 1-3.82-1.208 8.582 8.582 0 0 1-2.854-2.834A17.715 17.715 0 0 1 0 .633C0 .302.125.001.75.001h2.188c.563 0 .765.253.986.838 1.062 3.157 2.875 5.904 3.611 5.904.282 0 .405-.126.405-.836V2.654C7.847 1.17 7.067 1.045 7.067.508A.548.548 0 0 1 7.246.14.537.537 0 0 1 7.628 0h3.44c.47 0 .625.237.625.805v4.39c0 .474.202.631.344.631.282 0 .499-.157 1.016-.678A18.258 18.258 0 0 0 15.742.632a.948.948 0 0 1 .371-.477.933.933 0 0 1 .582-.153h2.189c.656 0 .795.332.656.805a27.688 27.688 0 0 1-2.938 5.1c-.237.363-.33.552 0 .979.216.331.984.978 1.5 1.594a9.84 9.84 0 0 1 1.844 2.588c.188.616-.125.931-.75.931Z"/></symbol><symbol fill="currentColor" viewBox="0 0 20 20" id="svg-whatsapp"><path fill-rule="evenodd" d="M10 0C4.477 0 0 4.477 0 10c0 1.89.525 3.66 1.438 5.168L.546 18.2A1.01 1.01 0 0 0 1.8 19.454l3.032-.892A9.96 9.96 0 0 0 10 20c5.523 0 10-4.477 10-10S15.523 0 10 0ZM7.738 12.263c2.023 2.022 3.954 2.289 4.636 2.314 1.037.038 2.047-.754 2.44-1.673a.7.7 0 0 0-.088-.703c-.548-.7-1.289-1.203-2.013-1.703a.71.71 0 0 0-.973.158l-.6.915a.23.23 0 0 1-.305.076c-.407-.233-1-.629-1.426-1.055-.426-.426-.798-.992-1.007-1.373a.23.23 0 0 1 .067-.291l.924-.686a.71.71 0 0 0 .12-.94c-.448-.656-.97-1.49-1.727-2.043a.7.7 0 0 0-.684-.075c-.92.394-1.716 1.404-1.678 2.443.025.682.292 2.613 2.314 4.636Z"/></symbol></svg>