<svg width="373" height="350" viewBox="0 0 373 350" fill="none" xmlns="http://www.w3.org/2000/svg">
<path d="M143.483 166.016L164.253 346.555C165.57 358.004 166.639 367.296 187.39 364.909L228.892 360.135C249.643 357.747 248.574 348.455 247.257 337.005L231.121 196.748C199.003 198.411 167.521 187.372 143.483 166.016Z" fill="#202020" fill-opacity="0.05"/>
<path fill-rule="evenodd" clip-rule="evenodd" d="M146.743 121.612C153.467 132.683 162.468 142.2 173.151 149.531C183.833 156.862 195.952 161.839 208.705 164.134C221.458 166.428 234.554 165.988 247.124 162.84C259.694 159.693 271.452 153.912 281.618 145.879L342.076 193.84L368.043 161.135L307.586 113.175C314.315 98.8859 317.223 83.0977 316.026 67.351C314.83 51.6042 309.57 36.437 300.759 23.3293C291.949 10.2217 279.889 -0.378444 265.756 -7.43665C251.624 -14.4949 235.902 -17.77 220.125 -16.9424C204.348 -16.1148 189.054 -11.2127 175.737 -2.71461C162.42 5.78349 151.534 17.5873 144.141 31.5449C136.749 45.5024 133.103 61.1369 133.559 76.9224C134.015 92.708 138.557 108.105 146.743 121.612ZM230.58 123.505C227.633 123.844 224.72 123.927 221.841 123.754C211.169 123.095 200.998 119.001 192.849 112.083C184.143 104.713 178.245 94.5679 176.149 83.3577C174.053 72.1475 175.887 60.5573 181.342 50.54C186.796 40.5227 195.538 32.6906 206.095 28.3634C216.651 24.0361 228.377 23.4782 239.297 26.7837C250.216 30.0892 259.661 37.056 266.041 46.5102C272.421 55.9644 275.345 67.3282 274.322 78.6868C273.298 90.0455 268.389 100.705 260.421 108.868C252.453 117.032 241.914 122.201 230.58 123.505Z" fill="#202020" fill-opacity="0.05"/>
<path d="M1.56691 29.0066C0.249701 17.5571 -0.819336 8.26465 19.9317 5.87736L61.4337 1.1028C82.1847 -1.28449 83.2538 8.00792 84.571 19.4575L122.751 351.329C124.068 362.779 125.137 372.071 104.386 374.458L62.8841 379.233C42.133 381.62 41.064 372.328 39.7468 360.878L1.56691 29.0066ZM297.579 226.134C276.828 228.521 277.897 237.813 279.214 249.263L288.759 332.231C290.076 343.68 291.145 352.973 311.896 350.585L353.398 345.811C364.853 344.493 374.149 343.424 371.763 322.682L362.218 239.714C360.901 228.264 359.832 218.972 339.081 221.359L297.579 226.134Z" fill="#202020" fill-opacity="0.05"/>
</svg>
