<svg width="357" height="309" viewBox="0 0 357 309" fill="none" xmlns="http://www.w3.org/2000/svg">
<path d="M199.051 12.756C162.39 6.89639 133.893 2.34172 111.328 1.18274C88.5028 0.0310145 69.9279 2.23471 53.93 11.3609C37.5014 20.7446 28.264 34.8838 21.9825 53.5748C15.9992 71.4159 12.271 94.7412 7.62232 123.826L7.15694 126.738C2.62521 155.091 -0.510389 174.709 0.317065 189.837C0.767094 197.986 2.36342 205.257 5.57593 212.265C8.75623 219.17 13.2334 225.27 18.7645 231.376C27.4644 241.006 38.4608 247.741 51.8857 252.987L45.3093 294.132C44.977 296.223 45.1969 298.364 45.9468 300.341C46.6968 302.318 47.9505 304.061 49.5826 305.396C51.2146 306.731 53.1676 307.611 55.246 307.947C57.3244 308.284 59.4552 308.066 61.4251 307.314C71.5491 303.466 80.6893 298.971 89.0799 294.699L94.452 291.952C100.448 288.778 106.533 285.778 112.701 282.957C127.449 276.372 141.109 272.73 157.834 275.403L158.578 275.522C195.239 281.382 223.735 285.936 246.3 287.095C269.126 288.247 287.701 286.043 303.698 276.917C310.841 272.837 317.013 268.439 322.171 262.867C327.424 257.212 331.207 250.801 334.175 243.198C339.676 229.082 342.812 209.464 347.344 181.111L347.809 178.199C352.458 149.114 356.186 125.789 356.059 106.987C355.919 87.2536 351.549 70.9395 338.864 56.9025C326.51 43.2285 309.545 35.3607 287.495 29.3562C265.696 23.408 237.199 18.8533 200.538 12.9937L199.051 12.756Z" fill="white" fill-opacity="0.1"/>
</svg>
