<svg width="375" height="350" viewBox="0 0 375 350" fill="none" xmlns="http://www.w3.org/2000/svg">
<path d="M308.163 84.7685L268.154 -15.7519C266.404 -20.149 262.978 -23.6712 258.629 -25.5437C254.28 -27.4162 249.365 -27.4856 244.965 -25.7366L228.375 -19.142C208.603 26.7191 154.233 69.6077 119.497 93.5157L190.593 272.141C232.271 265.675 301.264 259.526 347.155 279.286L363.745 272.691C368.145 270.942 371.669 267.518 373.543 263.172C375.416 258.826 375.486 253.914 373.736 249.517L333.727 148.997C340.128 144.331 344.794 137.67 346.991 130.063C349.188 122.456 348.791 114.335 345.863 106.978C342.935 99.6208 337.641 93.446 330.816 89.4253C323.991 85.4046 316.022 83.7664 308.163 84.7685ZM22.5107 139.499C13.7109 142.997 6.66186 149.846 2.91445 158.538C-0.832965 167.229 -0.971822 177.053 2.52842 185.847L42.1215 285.323C45.6217 294.117 52.4743 301.162 61.1718 304.907C69.8693 308.652 79.6993 308.791 88.4992 305.293L105.089 298.698L154.673 375L187.853 361.811L88.8708 113.121L22.5107 139.499Z" fill="white" fill-opacity="0.05"/>
</svg>
