<svg width="20" height="21" viewBox="0 0 20 21" fill="none" xmlns="http://www.w3.org/2000/svg">
<path d="M11.028 0.5C12.153 0.503 12.7239 0.509 13.2169 0.522999L13.4109 0.529999C13.6349 0.537999 13.8559 0.547999 14.1229 0.559998C15.1868 0.609997 15.9128 0.777993 16.5497 1.02499C17.2097 1.27898 17.7657 1.62297 18.3216 2.17796C18.8303 2.67768 19.2238 3.2824 19.4746 3.94992C19.7216 4.5869 19.8896 5.31288 19.9396 6.37786C19.9516 6.64385 19.9616 6.86485 19.9696 7.08984L19.9756 7.28384C19.9906 7.77582 19.9966 8.34681 19.9986 9.47178L19.9996 10.2178V11.5277C20.002 12.2571 19.9943 12.9865 19.9766 13.7157L19.9706 13.9097C19.9626 14.1347 19.9526 14.3557 19.9406 14.6217C19.8906 15.6866 19.7206 16.4116 19.4746 17.0496C19.2238 17.7171 18.8303 18.3218 18.3216 18.8216C17.8219 19.3302 17.2172 19.7237 16.5497 19.9745C15.9128 20.2215 15.1868 20.3895 14.1229 20.4395L13.4109 20.4695L13.2169 20.4755C12.7239 20.4895 12.153 20.4965 11.028 20.4985L10.282 20.4995H8.97312C8.24341 20.5021 7.51371 20.4944 6.78423 20.4765L6.59024 20.4705C6.35286 20.4615 6.11553 20.4512 5.87827 20.4395C4.81433 20.3895 4.08836 20.2215 3.45039 19.9745C2.78326 19.7236 2.1789 19.3301 1.67948 18.8216C1.17046 18.3219 0.776638 17.7172 0.525542 17.0496C0.278555 16.4126 0.110563 15.6866 0.0605657 14.6217L0.0305672 13.9097L0.0255676 13.7157C0.00713458 12.9865 -0.00119923 12.2571 0.000568768 11.5277V9.47178C-0.00219899 8.7424 0.00513476 8.01301 0.0225677 7.28384L0.0295673 7.08984C0.0375669 6.86485 0.0475664 6.64385 0.0595658 6.37786C0.109563 5.31288 0.277555 4.5879 0.524542 3.94992C0.776224 3.28213 1.17073 2.67738 1.68048 2.17796C2.17961 1.66952 2.78362 1.27605 3.45039 1.02499C4.08836 0.777993 4.81333 0.609997 5.87827 0.559998C6.14426 0.547999 6.36625 0.537999 6.59024 0.529999L6.78423 0.523999C7.51338 0.506233 8.24275 0.498565 8.97212 0.501L11.028 0.5ZM10.0001 5.49988C8.67405 5.49988 7.40234 6.02665 6.46471 6.96431C5.52707 7.90197 5.00032 9.17371 5.00032 10.4998C5.00032 11.8258 5.52707 13.0975 6.46471 14.0352C7.40234 14.9729 8.67405 15.4996 10.0001 15.4996C11.3261 15.4996 12.5978 14.9729 13.5354 14.0352C14.4731 13.0975 14.9998 11.8258 14.9998 10.4998C14.9998 9.17371 14.4731 7.90197 13.5354 6.96431C12.5978 6.02665 11.3261 5.49988 10.0001 5.49988ZM10.0001 7.49983C10.394 7.49976 10.7841 7.57729 11.1481 7.72799C11.5121 7.87869 11.8428 8.09961 12.1214 8.37813C12.4 8.65666 12.6211 8.98733 12.7719 9.35127C12.9227 9.71522 13.0003 10.1053 13.0004 10.4993C13.0005 10.8932 12.923 11.2833 12.7723 11.6473C12.6216 12.0113 12.4006 12.3421 12.1221 12.6207C11.8436 12.8993 11.513 13.1203 11.149 13.2711C10.7851 13.422 10.395 13.4996 10.0011 13.4997C9.20545 13.4997 8.44243 13.1836 7.87985 12.621C7.31727 12.0584 7.00122 11.2954 7.00122 10.4998C7.00122 9.70413 7.31727 8.94108 7.87985 8.37849C8.44243 7.81589 9.20545 7.49983 10.0011 7.49983M15.2508 3.99991C14.9193 3.99991 14.6014 4.13161 14.367 4.36602C14.1326 4.60044 14.0009 4.91837 14.0009 5.24988C14.0009 5.5814 14.1326 5.89933 14.367 6.13375C14.6014 6.36816 14.9193 6.49985 15.2508 6.49985C15.5823 6.49985 15.9002 6.36816 16.1346 6.13375C16.369 5.89933 16.5007 5.5814 16.5007 5.24988C16.5007 4.91837 16.369 4.60044 16.1346 4.36602C15.9002 4.13161 15.5823 3.99991 15.2508 3.99991Z" fill="#202020"/>
</svg>
