<svg width="296" height="104" viewBox="0 0 296 104" fill="none" xmlns="http://www.w3.org/2000/svg">
<path d="M3.0023 99.2969H1.00078V88.0515H4.72361L6.64507 93.4132H7.16547L9.10695 88.0515H12.8298V99.2969H10.8283V89.9191H10.2678L8.36638 95.2807H5.46417L3.56273 89.9191H3.0023V99.2969Z" fill="white" fill-opacity="0.75"/>
<path d="M14.8394 95.7225C14.8394 93.7144 16.2605 92.0878 18.6423 92.0878C20.6238 92.0878 21.9048 92.3489 23.0057 92.8911V92.1882C23.0057 90.662 21.7047 89.8588 20.2436 89.8588C19.0226 89.8588 18.3421 89.9793 17.5415 90.401L17.4214 91.2042H15.8202V89.2363C17.1812 88.4531 18.2821 87.9913 20.2436 87.9913C23.0057 87.9913 25.0072 89.4371 25.0072 92.5698V99.2969H23.406L23.0857 97.6302C21.9849 98.5138 20.6639 99.3572 18.6423 99.3572C16.2605 99.3572 14.8394 97.7306 14.8394 95.7225ZM16.7809 95.7225C16.7809 96.6462 17.5215 97.57 19.0426 97.57C20.6238 97.57 21.9248 96.7065 23.0057 95.6623V94.6783C21.9448 94.1562 20.4237 93.875 18.8425 93.875C17.3213 93.875 16.7809 94.7988 16.7809 95.7225Z" fill="white" fill-opacity="0.75"/>
<path d="M32.4608 87.9913C35.2229 87.9913 37.5847 90.5416 37.5847 93.6742C37.5847 96.8069 35.2229 99.3572 31.8604 99.3572C31.0798 99.3572 30.019 99.0961 29.0182 98.5941V103.655H27.0167V88.0515H28.6179L28.8581 89.2564C29.9189 88.5334 31.42 87.9913 32.4608 87.9913ZM32.0605 89.9994C30.9597 90.0195 30.019 90.4211 29.0182 91.1038V96.4253C30.019 97.0679 30.9397 97.3491 32.0605 97.3491C34.0821 97.3491 35.5832 95.7225 35.5832 93.6742C35.5832 91.6661 34.1021 89.9994 32.0605 89.9994Z" fill="white" fill-opacity="0.75"/>
<path d="M44.7539 94.3771H41.3714V99.2969H39.3698V88.0515H41.3714V92.5095H44.794C45.0742 92.4694 45.4144 92.1079 45.5946 91.6259L46.2751 89.8588C46.7955 88.6941 47.7962 88.0515 48.8771 88.0515L49.6577 88.2523V90.0596H48.8771C48.5568 90.0596 48.2366 90.3408 48.0364 90.8428L47.3559 92.6099C47.2358 92.9312 46.7555 93.3328 46.5753 93.4332C46.7555 93.4935 47.1758 93.8951 47.3159 94.1762L48.4167 96.5659C48.6369 97.0679 48.9371 97.3491 49.2574 97.3491H50.038V99.1564L49.2574 99.3572C48.1565 99.3572 47.1958 98.7146 46.6554 97.5499L45.5545 95.1602C45.3344 94.6984 45.0742 94.4172 44.7539 94.3771Z" fill="white" fill-opacity="0.75"/>
<path d="M57.2444 97.4093C59.1658 97.4093 60.1466 96.4053 60.4868 96.0036L61.7078 97.5499C61.4676 97.8511 60.1266 99.3572 57.2444 99.3572C54.122 99.3572 51.6201 96.8671 51.6201 93.6541C51.6201 90.5416 54.082 87.9913 57.2043 87.9913C60.2066 87.9913 62.6285 90.4412 62.6285 93.6541C62.6285 93.8951 62.6085 94.2365 62.5884 94.3771H53.6817C54.0419 96.104 55.483 97.4093 57.2444 97.4093ZM57.2043 89.9994C55.5231 89.9994 54.162 91.0637 53.7617 92.5095H60.4468C60.2066 91.1641 58.8456 89.9994 57.2043 89.9994Z" fill="white" fill-opacity="0.75"/>
<path d="M69.9439 99.2969H67.9424V89.9191H63.9393V88.0515H73.9469V89.9191H69.9439V99.2969Z" fill="white" fill-opacity="0.75"/>
<path d="M86.1084 99.2969H84.1069V89.9191H83.5264L79.4433 99.2969H75.9406V88.0515H77.9422V97.4294H78.3425L82.4656 88.0515H86.1084V99.2969Z" fill="white" fill-opacity="0.75"/>
<path d="M90.1194 99.2969H88.1179V88.0515H90.1194V92.5095H96.2841V88.0515H98.2856V99.2969H96.2841V94.3771H90.1194V99.2969Z" fill="white" fill-opacity="0.75"/>
<path d="M102.297 99.2969H100.295V88.0515H108.461V89.9191H102.297V99.2969Z" fill="white" fill-opacity="0.75"/>
<path d="M115.257 87.9913C118.36 87.9913 121.062 90.5416 121.062 93.6541C121.062 96.8069 118.36 99.3572 115.257 99.3572C112.135 99.3572 109.433 96.8069 109.433 93.6541C109.433 90.5416 112.135 87.9913 115.257 87.9913ZM115.257 89.9994C113.216 89.9994 111.434 91.646 111.434 93.6541C111.434 95.7024 113.216 97.3491 115.257 97.3491C117.299 97.3491 119.06 95.7024 119.06 93.6541C119.06 91.646 117.299 89.9994 115.257 89.9994Z" fill="white" fill-opacity="0.75"/>
<path d="M132.704 95.8831C132.704 97.7708 131.183 99.2969 129.301 99.2969H122.636V88.0515H128.901C130.682 88.0515 132.124 89.4773 132.124 91.2444C132.124 91.887 131.743 92.8509 131.043 93.2123C131.883 93.5738 132.704 94.7586 132.704 95.8831ZM129.301 94.4373H124.638V97.3491H129.301C130.082 97.3491 130.702 96.6462 130.702 95.8831C130.702 95.1 130.082 94.4373 129.301 94.4373ZM128.901 89.9994H124.638V92.4894H129.141C129.622 92.4493 130.122 91.9272 130.122 91.2444C130.122 90.5817 129.562 89.9994 128.901 89.9994Z" fill="white" fill-opacity="0.75"/>
<path d="M140.1 87.9913C143.203 87.9913 145.905 90.5416 145.905 93.6541C145.905 96.8069 143.203 99.3572 140.1 99.3572C136.978 99.3572 134.276 96.8069 134.276 93.6541C134.276 90.5416 136.978 87.9913 140.1 87.9913ZM140.1 89.9994C138.059 89.9994 136.278 91.646 136.278 93.6541C136.278 95.7024 138.059 97.3491 140.1 97.3491C142.142 97.3491 143.903 95.7024 143.903 93.6541C143.903 91.646 142.142 89.9994 140.1 89.9994Z" fill="white" fill-opacity="0.75"/>
<path d="M152.884 97.4093C154.805 97.4093 155.786 96.4053 156.126 96.0036L157.347 97.5499C157.107 97.8511 155.766 99.3572 152.884 99.3572C149.761 99.3572 147.259 96.8671 147.259 93.6541C147.259 90.5416 149.721 87.9913 152.844 87.9913C155.846 87.9913 158.268 90.4412 158.268 93.6541C158.268 93.8951 158.248 94.2365 158.228 94.3771H149.321C149.681 96.104 151.122 97.4093 152.884 97.4093ZM152.844 89.9994C151.162 89.9994 149.801 91.0637 149.401 92.5095H156.086C155.846 91.1641 154.485 89.9994 152.844 89.9994Z" fill="white" fill-opacity="0.75"/>
<path d="M166.185 95.7225C166.185 93.7144 167.606 92.0878 169.988 92.0878C171.97 92.0878 173.251 92.3489 174.351 92.8911V92.1882C174.351 90.662 173.05 89.8588 171.589 89.8588C170.368 89.8588 169.688 89.9793 168.887 90.401L168.767 91.2042H167.166V89.2363C168.527 88.4531 169.628 87.9913 171.589 87.9913C174.351 87.9913 176.353 89.4371 176.353 92.5698V99.2969H174.752L174.431 97.6302C173.331 98.5138 172.01 99.3572 169.988 99.3572C167.606 99.3572 166.185 97.7306 166.185 95.7225ZM168.127 95.7225C168.127 96.6462 168.867 97.57 170.388 97.57C171.97 97.57 173.271 96.7065 174.351 95.6623V94.6783C173.291 94.1562 171.769 93.875 170.188 93.875C168.667 93.875 168.127 94.7988 168.127 95.7225Z" fill="white" fill-opacity="0.75"/>
<path d="M180.364 99.2969H178.362V88.0515H186.529V89.9191H180.364V99.2969Z" fill="white" fill-opacity="0.75"/>
<path d="M193.325 97.4093C195.246 97.4093 196.227 96.4053 196.567 96.0036L197.788 97.5499C197.548 97.8511 196.207 99.3572 193.325 99.3572C190.202 99.3572 187.7 96.8671 187.7 93.6541C187.7 90.5416 190.162 87.9913 193.284 87.9913C196.287 87.9913 198.709 90.4412 198.709 93.6541C198.709 93.8951 198.689 94.2365 198.669 94.3771H189.762C190.122 96.104 191.563 97.4093 193.325 97.4093ZM193.284 89.9994C191.603 89.9994 190.242 91.0637 189.842 92.5095H196.527C196.287 91.1641 194.926 89.9994 193.284 89.9994Z" fill="white" fill-opacity="0.75"/>
<path d="M202.627 99.2969H200.625V88.0515H202.627V92.5095H208.792V88.0515H210.793V99.2969H208.792V94.3771H202.627V99.2969Z" fill="white" fill-opacity="0.75"/>
<path d="M218.201 99.2969H216.2V89.9191H212.197V88.0515H222.204V89.9191H218.201V99.2969Z" fill="white" fill-opacity="0.75"/>
<path d="M228.896 89.9994C226.855 89.9994 225.173 91.4452 225.173 93.6541C225.173 95.9032 226.855 97.3491 228.896 97.3491C231.418 97.3491 232.439 95.9635 232.439 96.0036L233.7 97.59C233.6 97.6904 231.938 99.3572 228.896 99.3572C225.774 99.3572 223.172 97.0077 223.172 93.6541C223.172 90.3408 225.774 87.9913 228.896 87.9913C231.438 87.9913 232.999 89.1158 233.059 89.156V91.144H231.598L231.318 90.4813C230.798 90.2604 229.957 89.9994 228.896 89.9994Z" fill="white" fill-opacity="0.75"/>
<path d="M240.836 99.2969H238.834V89.9191H234.831V88.0515H244.839V89.9191H240.836V99.2969Z" fill="white" fill-opacity="0.75"/>
<path d="M256.9 95.8831C256.9 97.7708 255.379 99.2969 253.498 99.2969H246.832V88.0515H253.097C254.879 88.0515 256.32 89.4773 256.32 91.2444C256.32 91.887 255.939 92.8509 255.239 93.2123C256.079 93.5738 256.9 94.7586 256.9 95.8831ZM253.498 94.4373H248.834V97.3491H253.498C254.278 97.3491 254.899 96.6462 254.899 95.8831C254.899 95.1 254.278 94.4373 253.498 94.4373ZM253.097 89.9994H248.834V92.4894H253.337C253.818 92.4493 254.318 91.9272 254.318 91.2444C254.318 90.5817 253.758 89.9994 253.097 89.9994Z" fill="white" fill-opacity="0.75"/>
<path d="M264.297 87.9913C267.399 87.9913 270.101 90.5416 270.101 93.6541C270.101 96.8069 267.399 99.3572 264.297 99.3572C261.174 99.3572 258.472 96.8069 258.472 93.6541C258.472 90.5416 261.174 87.9913 264.297 87.9913ZM264.297 89.9994C262.255 89.9994 260.474 91.646 260.474 93.6541C260.474 95.7024 262.255 97.3491 264.297 97.3491C266.338 97.3491 268.099 95.7024 268.099 93.6541C268.099 91.646 266.338 89.9994 264.297 89.9994Z" fill="white" fill-opacity="0.75"/>
<path d="M26.4528 21.3879C16.9922 21.3879 8.35834 29.6581 8.35834 39.2148C8.35834 46.3824 12.6753 51.9878 20.6662 51.9878C30.1268 51.9878 38.8525 43.7175 38.8525 34.1608C38.8525 27.0852 34.4437 21.3879 26.4528 21.3879ZM8.26649 56.3067V78.3606H0V14.0366H8.26649V20.8365C13.2264 15.8744 19.9314 13.1176 26.4528 13.1176C38.2095 13.1176 47.119 21.9392 47.119 33.8851C47.119 47.7607 34.7193 60.258 20.6662 60.258C16.4411 60.258 11.7568 58.9715 8.26649 56.3067Z" fill="white" fill-opacity="0.75"/>
<path d="M66.5933 71.0093C76.0539 71.0093 84.6877 62.7391 84.6877 53.1823C84.6877 46.0148 80.3708 40.4094 72.3799 40.4094C62.9193 40.4094 54.1936 48.6797 54.1936 58.2364C54.1936 65.312 58.6024 71.0093 66.5933 71.0093ZM54.1936 22.3068V14.0366H93.0461V78.3606H84.7796V71.5607C79.8197 76.5228 73.1147 79.2795 66.5933 79.2795C54.8365 79.2795 45.9271 70.4579 45.9271 58.5121C45.9271 44.6364 58.3268 32.1392 72.3799 32.1392C76.6049 32.1392 81.2893 33.4257 84.7796 36.0905V22.3068H54.1936Z" fill="white" fill-opacity="0.75"/>
<path d="M99.4741 14.0366H107.741V70.0904L126.845 14.0366H135.663V78.3606H126.937L126.845 39.3068L113.619 78.3606H99.4741V14.0366ZM107.741 8.61496V0.344727H126.845V8.61496H107.741Z" fill="white" fill-opacity="0.75"/>
<path d="M141.38 14.0366H173.436V22.3068H161.587V78.3606H153.321V22.3068H141.38V14.0366Z" fill="white" fill-opacity="0.75"/>
<path d="M201.466 13.1176C217.265 13.1176 227.001 26.7176 227.001 41.5121C227.001 59.7985 212.397 79.2795 193.108 79.2795C177.31 79.2795 167.574 65.8634 167.574 50.9769C167.574 32.6905 182.086 13.1176 201.466 13.1176ZM201.65 21.3879C186.587 21.3879 175.84 36.6419 175.84 50.8851C175.84 61.7283 182.545 70.9174 192.833 70.9174C207.804 70.9174 218.826 55.5715 218.826 41.5121C218.826 30.3014 211.845 21.3879 201.65 21.3879Z" fill="white" fill-opacity="0.75"/>
<path d="M287.734 14.0366H296V78.3606H287.734V50.3337H239.972V78.3606H231.705V14.0366H239.972V42.0635H287.734V14.0366Z" fill="white" fill-opacity="0.75"/>
</svg>
