<svg width="20" height="22" viewBox="0 0 20 22" fill="none" xmlns="http://www.w3.org/2000/svg">
<path d="M3.00388 11.9893L10.6969 19.6823C11.5408 20.5262 12.6854 21.0003 13.8789 21.0003C15.0724 21.0003 16.217 20.5262 17.0609 19.6823C17.9048 18.8383 18.3789 17.6937 18.3789 16.5003C18.3789 15.3068 17.9048 14.1622 17.0609 13.3183L6.12088 2.37825C5.84221 2.09972 5.51142 1.8788 5.14737 1.72811C4.78333 1.57742 4.39317 1.49991 3.99917 1.5C3.60517 1.50009 3.21505 1.57779 2.85108 1.72865C2.48711 1.87951 2.15641 2.10059 1.87788 2.37925C1.59935 2.65792 1.37842 2.98872 1.22773 3.35276C1.07704 3.7168 0.999533 4.10696 0.999626 4.50096C0.999719 4.89496 1.07741 5.28508 1.22828 5.64906C1.37914 6.01303 1.60021 6.34372 1.87888 6.62225L12.8269 17.5703C13.1109 17.8425 13.4905 17.9913 13.8839 17.9863C14.2773 17.9813 14.6531 17.822 14.9301 17.5426C15.2071 17.2632 15.3633 16.8862 15.3649 16.4927C15.3666 16.0993 15.2136 15.7209 14.9389 15.4393L7.12888 7.62925M12.8179 17.5603L12.8279 17.5703" stroke="#202020" stroke-width="1.5" stroke-linecap="round" stroke-linejoin="round"/>
</svg>
