<svg width="19" height="19" viewBox="0 0 19 19" fill="none" xmlns="http://www.w3.org/2000/svg">
<path d="M18.3651 0.634563C18.2629 0.532861 18.1338 0.462446 17.993 0.431598C17.8522 0.40075 17.7055 0.410751 17.5701 0.460425L0.913416 6.51741C0.769765 6.5719 0.646091 6.6688 0.558818 6.79524C0.471545 6.92168 0.424805 7.07168 0.424805 7.22532C0.424805 7.37896 0.471545 7.52896 0.558818 7.6554C0.646091 7.78184 0.769765 7.87874 0.913416 7.93323L4.90873 9.52857C6.43019 10.1361 8.16735 9.77755 9.32395 8.6173L11.6839 6.24989C11.9783 5.95454 12.4566 5.95416 12.7515 6.24905C13.046 6.54361 13.046 7.02119 12.7515 7.31575L10.3789 9.6883C9.21604 10.8512 8.85841 12.5953 9.46979 14.122L11.0664 18.109C11.1225 18.2498 11.2197 18.3706 11.3452 18.4557C11.4707 18.5407 11.6189 18.5861 11.7706 18.586C11.9236 18.5828 12.072 18.5334 12.1964 18.4442C12.3207 18.355 12.4151 18.2302 12.4671 18.0863L18.5241 1.42954C18.5757 1.29559 18.5881 1.14973 18.56 1.00898C18.5318 0.868224 18.4642 0.738372 18.3651 0.634563Z" fill="white"/>
</svg>
