<svg width="20" height="18" viewBox="0 0 20 18" fill="none" xmlns="http://www.w3.org/2000/svg">
<path fill-rule="evenodd" clip-rule="evenodd" d="M17.8888 0.616302C18.1335 0.513323 18.4013 0.477806 18.6644 0.513448C18.9274 0.54909 19.1761 0.654588 19.3846 0.818961C19.593 0.983335 19.7536 1.20057 19.8496 1.44807C19.9456 1.69556 19.9735 1.96427 19.9304 2.22621L17.6849 15.847C17.467 17.1609 16.0255 17.9143 14.8205 17.2599C13.8126 16.7124 12.3155 15.8688 10.969 14.9886C10.2957 14.548 8.23336 13.1371 8.48683 12.1332C8.70465 11.2747 12.17 8.04899 14.1502 6.13116C14.9274 5.3777 14.573 4.94304 13.6552 5.63611C11.3759 7.35691 7.71653 9.97374 6.50663 10.7104C5.4393 11.3599 4.88286 11.4708 4.21752 11.3599C3.00365 11.1579 1.87791 10.845 0.959094 10.4638C-0.282492 9.94899 -0.222096 8.24206 0.958104 7.74503L17.8888 0.616302Z" fill="white"/>
</svg>
