<svg xmlns="http://www.w3.org/2000/svg" width="20" height="12" fill="none" viewBox="0 0 20 12">
  <path fill="#fff" d="M19.196 11.999h-2.19c-.828 0-1.077-.677-2.562-2.178-1.297-1.263-1.845-1.42-2.173-1.42-.454 0-.578.126-.578.757v1.99c0 .537-.173.852-1.564.852a8.482 8.482 0 0 1-3.82-1.208 8.582 8.582 0 0 1-2.854-2.834A17.715 17.715 0 0 1 0 .633C0 .302.125.001.75.001h2.188c.563 0 .765.253.986.838 1.062 3.157 2.875 5.904 3.61 5.904.283 0 .406-.126.406-.836V2.654C7.847 1.17 7.067 1.045 7.067.508A.548.548 0 0 1 7.245.14.537.537 0 0 1 7.628 0h3.44c.47 0 .625.237.625.805v4.39c0 .474.202.631.344.631.282 0 .498-.157 1.016-.678A18.258 18.258 0 0 0 15.742.632a.949.949 0 0 1 .37-.477.933.933 0 0 1 .583-.153h2.188c.657 0 .796.332.657.805a27.688 27.688 0 0 1-2.939 5.1c-.236.363-.33.552 0 .979.217.331.985.978 1.5 1.594a9.84 9.84 0 0 1 1.845 2.588c.188.616-.125.931-.75.931Z"/>
</svg>
