<svg width="40" height="33" viewBox="0 0 40 33" fill="none" xmlns="http://www.w3.org/2000/svg">
<path fill-rule="evenodd" clip-rule="evenodd" d="M20.1449 0.981677C25.5048 0.551351 29.888 4.22769 30.3232 9.64769C30.8286 15.9432 25.6308 22.0673 19.2239 22.5817C17.2977 22.7363 15.1152 22.3241 13.4269 21.2428L14.1832 30.6636L41.0728 28.5047L41.1203 29.0969L-1.40951 32.5114L-1.45703 31.9193L10.4145 30.9661L8.11838 2.36684L11.8871 2.06425L12.1348 5.1495C14.2153 2.71657 17.1718 1.22038 20.1449 0.981677ZM26.5645 10.0754C26.3067 6.86504 24.0892 4.4415 20.4461 4.73399C16.133 5.08027 12.4981 9.1486 12.8462 13.4846C13.1073 16.7366 15.2796 19.1219 18.9227 18.8294C23.2358 18.4831 26.9126 14.4114 26.5645 10.0754Z" fill="#202020"/>
</svg>
