<svg width="20" height="20" viewBox="0 0 20 20" fill="none" xmlns="http://www.w3.org/2000/svg">
<path d="M18.8651 1.13456C18.7629 1.03286 18.6338 0.962446 18.493 0.931598C18.3522 0.90075 18.2055 0.910751 18.0701 0.960425L1.41342 7.01741C1.26977 7.0719 1.14609 7.1688 1.05882 7.29524C0.971545 7.42168 0.924805 7.57168 0.924805 7.72532C0.924805 7.87895 0.971545 8.02896 1.05882 8.1554C1.14609 8.28184 1.26977 8.37874 1.41342 8.43323L5.40873 10.0286C6.93019 10.6361 8.66735 10.2775 9.82395 9.1173L12.1839 6.74989C12.4783 6.45454 12.9566 6.45416 13.2515 6.74905V6.74905C13.546 7.04361 13.546 7.52119 13.2515 7.81575L10.8789 10.1883C9.71604 11.3512 9.35841 13.0953 9.96979 14.622L11.5664 18.609C11.6225 18.7498 11.7197 18.8706 11.8452 18.9557C11.9707 19.0407 12.1189 19.0861 12.2706 19.0859C12.4236 19.0828 12.572 19.0334 12.6964 18.9442C12.8207 18.855 12.9151 18.7302 12.9671 18.5862L19.0241 1.92954C19.0757 1.79559 19.0881 1.64973 19.06 1.50898C19.0318 1.36822 18.9642 1.23837 18.8651 1.13456Z" fill="#202020"/>
</svg>
