<svg xmlns="http://www.w3.org/2000/svg" width="26" height="26" fill="none" viewBox="0 0 26 26">
  <path fill="#fff" d="M14.606.606C7.764-.29 1.485 4.536.59 11.379c-.895 6.841 3.931 13.12 10.773 14.016 6.841.895 13.12-3.932 14.016-10.773C26.274 7.78 21.448 1.5 14.606.606Zm4.648 9.18c-.442 1.934-1.87 6.588-2.566 8.729-.296.907-.683 1.17-1.01 1.166-.727-.032-1.203-.636-1.837-1.186-.996-.861-1.558-1.389-2.52-2.22-1.122-.967-.27-1.31.53-1.936.21-.161 3.76-2.634 3.857-2.886a.25.25 0 0 0-.033-.231c-.066-.072-.168-.06-.257-.06-.115.011-2 .937-5.683 2.774-.54.27-1.008.386-1.403.321-.445-.07-1.257-.416-1.861-.71-.749-.35-1.338-.566-1.232-.993.054-.22.393-.402 1.007-.562 3.825-1.1 6.365-1.827 7.632-2.165 3.634-.987 4.373-1.143 4.844-1.081.1.013.331.069.464.212a.5.5 0 0 1 .13.357c-.022.073-.027.3-.062.471Z"/>
</svg>
