<svg width="20" height="21" viewBox="0 0 20 21" fill="none" xmlns="http://www.w3.org/2000/svg">
<path fill-rule="evenodd" clip-rule="evenodd" d="M14.1026 20.5C15.6667 20.5 17.1667 19.8787 18.2727 18.7727C19.3787 17.6667 20 16.1667 20 14.6026V6.39744C20 4.83334 19.3787 3.3333 18.2727 2.22732C17.1667 1.12134 15.6667 0.5 14.1026 0.5H5.89744C4.33334 0.5 2.8333 1.12134 1.72732 2.22732C0.621335 3.3333 0 4.83334 0 6.39744V14.6026C0 16.1667 0.621335 17.6667 1.72732 18.7727C2.8333 19.8787 4.33334 20.5 5.89744 20.5H14.1026ZM11.7549 4.10308C11.6968 3.9302 11.5793 3.78356 11.4231 3.68932C11.267 3.59509 11.0825 3.55939 10.9025 3.58859C10.7225 3.61779 10.5587 3.70999 10.4403 3.84875C10.322 3.98751 10.2568 4.16379 10.2564 4.34615V13.5769C10.2564 14.0333 10.1211 14.4795 9.86749 14.859C9.61392 15.2385 9.25351 15.5343 8.83183 15.709C8.41016 15.8836 7.94616 15.9293 7.49851 15.8403C7.05086 15.7512 6.63967 15.5314 6.31693 15.2087C5.9942 14.886 5.77441 14.4748 5.68537 14.0271C5.59632 13.5795 5.64202 13.1155 5.81669 12.6938C5.99135 12.2721 6.28713 11.9117 6.66663 11.6581C7.04613 11.4046 7.4923 11.2692 7.94872 11.2692C8.15273 11.2692 8.34839 11.1882 8.49265 11.0439C8.6369 10.8997 8.71795 10.704 8.71795 10.5C8.71795 10.296 8.6369 10.1003 8.49265 9.95607C8.34839 9.81181 8.15273 9.73077 7.94872 9.73077C7.18802 9.73077 6.44441 9.95634 5.81191 10.379C5.17941 10.8016 4.68644 11.4023 4.39534 12.1051C4.10423 12.8079 4.02806 13.5812 4.17647 14.3273C4.32487 15.0734 4.69118 15.7587 5.22908 16.2966C5.76697 16.8345 6.45229 17.2008 7.19837 17.3492C7.94445 17.4976 8.71778 17.4214 9.42058 17.1303C10.1234 16.8392 10.7241 16.3462 11.1467 15.7137C11.5693 15.0812 11.7949 14.3376 11.7949 13.5769V6.86718C12.5815 7.59744 13.6892 8.19231 15.1282 8.19231C15.3322 8.19231 15.5279 8.11126 15.6721 7.96701C15.8164 7.82275 15.8974 7.62709 15.8974 7.42308C15.8974 7.21906 15.8164 7.02341 15.6721 6.87915C15.5279 6.73489 15.3322 6.65385 15.1282 6.65385C14.1313 6.65385 13.3733 6.24359 12.8113 5.71128C12.2369 5.16564 11.8903 4.50821 11.7549 4.10308Z" fill="#202020"/>
</svg>
