<svg width="356" height="350" viewBox="0 0 356 350" fill="none" xmlns="http://www.w3.org/2000/svg">
<path d="M158.725 -1.34341C174.528 -3.10195 190.068 -2.72633 205.07 -0.453381L171.74 41.1626C169.212 44.3325 167.056 47.7804 165.312 51.4393L164.607 51.5178C140.189 54.2351 117.124 64.1252 98.3287 79.9376C79.5338 95.75 65.8531 116.774 59.0167 140.352C52.1802 163.93 52.495 189.002 59.9212 212.398C67.3475 235.794 81.5517 256.463 100.738 271.792C119.923 287.12 143.229 296.42 167.708 298.514C192.187 300.608 216.739 295.403 238.26 283.557C259.78 271.711 277.303 253.756 288.612 231.963C299.921 210.17 304.508 185.517 301.793 161.122L301.715 160.417C304.89 157.923 307.757 155.077 310.318 151.879L343.648 110.263C349.165 124.383 352.948 139.446 354.705 155.234C365.535 252.552 295.351 340.225 197.94 351.065C100.529 361.904 12.7888 291.805 1.95937 194.487C-8.87002 97.1698 61.3137 9.49637 158.725 -1.34341ZM161.26 87.8707C162.929 102.866 163.88 118.155 166.358 133.042L157.893 143.616C154.981 147.254 152.814 151.429 151.517 155.903C150.22 160.377 149.817 165.062 150.332 169.69C150.847 174.319 152.27 178.801 154.519 182.88C156.768 186.96 159.799 190.556 163.44 193.465C167.08 196.373 171.258 198.537 175.736 199.832C180.214 201.127 184.903 201.528 189.536 201.012C194.17 200.497 198.656 199.074 202.74 196.827C206.823 194.579 210.424 191.55 213.336 187.912L221.801 177.337C236.883 176.48 252.004 174.048 267.031 172.376C267.501 189.276 263.124 205.959 254.415 220.458C245.707 234.956 233.031 246.665 217.882 254.204C202.733 261.743 185.743 264.796 168.915 263.005C152.088 261.213 136.126 254.652 122.91 244.094C109.695 233.535 99.7786 219.421 94.3301 203.416C88.8816 187.41 88.1284 170.18 92.1595 153.759C96.1906 137.338 104.838 122.41 117.081 110.736C129.324 99.0614 144.653 91.1278 161.26 87.8707ZM273.687 -11.8708C277.054 -10.8955 280.057 -8.94528 282.316 -6.26626C284.575 -3.58723 285.988 -0.299509 286.379 3.18191L289.967 35.4273L322.225 31.8375C325.713 31.4502 329.238 32.1046 332.353 33.7181C335.468 35.3317 338.034 37.8318 339.727 40.9026C341.42 43.9733 342.163 47.4767 341.863 50.9699C341.564 54.4632 340.234 57.7893 338.042 60.528L282.586 129.723C279.647 133.395 275.368 135.752 270.691 136.273L228.132 141.009L199.478 176.825C196.536 180.499 192.254 182.856 187.574 183.377C182.894 183.898 178.198 182.54 174.521 179.602C170.844 176.664 168.485 172.386 167.965 167.71C167.445 163.035 168.805 158.343 171.746 154.669L200.423 118.887L195.689 76.351C195.43 74.0345 195.63 71.6894 196.279 69.4501C196.927 67.2108 198.011 65.1211 199.469 63.3007L254.885 -5.92545C257.077 -8.66559 260.034 -10.6947 263.38 -11.7562C266.726 -12.8176 270.312 -12.8636 273.685 -11.8884" fill="white" fill-opacity="0.05"/>
</svg>
