<svg width="337" height="295" viewBox="0 0 337 295" fill="none" xmlns="http://www.w3.org/2000/svg">
<path d="M295.746 24.2432L295.817 23.7155C294.894 23.5919 293.966 23.5007 293.034 23.4419L293.047 23.3447L126.175 1.0032C114.239 -0.594911 102.154 2.62802 92.5805 9.96298C83.0067 17.298 76.7278 28.1441 75.125 40.1154L56.0656 182.474L163.39 196.843C172.945 198.122 179.659 206.938 178.376 216.521L172.797 258.187C170.44 275.797 183.778 291.466 203.608 294.121C221.5 296.517 237.043 287.613 241.687 272.613C241.854 271.787 241.998 270.958 242.119 270.126L270.624 57.2133C271.586 50.0015 274.41 43.1654 278.817 37.3823C283.223 31.5993 289.059 27.07 295.746 24.2432ZM3.1301 209.345C4.05611 202.428 10.402 197.566 17.2985 198.49L157.139 217.212L151.839 256.794L151.853 256.796C150.685 267.631 152.924 278.558 158.255 288.049L37.0549 271.822C14.5791 268.813 -2.19353 249.108 0.948956 225.636L3.1301 209.345ZM336.408 62.7266L331.461 99.6703C329.7 112.823 317.651 122.067 304.536 120.311L283.265 117.464L291.401 56.7009C292.202 50.7152 295.341 45.2921 300.128 41.6247C304.915 37.9572 310.957 36.3457 316.926 37.1448C322.894 37.9438 328.299 41.088 331.953 45.8855C335.607 50.683 337.209 56.7409 336.408 62.7266Z" fill="white" fill-opacity="0.05"/>
</svg>
