<svg width="12" height="21" viewBox="0 0 12 21" fill="none" xmlns="http://www.w3.org/2000/svg">
<path d="M5.98646 10.8411C3.16143 10.8411 0.813398 8.4951 0.813398 5.71907C0.813398 2.84703 3.16143 0.5 5.98746 0.5C8.9095 0.5 11.1605 2.84603 11.1605 5.71907C11.1583 6.39407 11.0231 7.06202 10.7628 7.68479C10.5024 8.30756 10.1219 8.87295 9.64303 9.34867C9.16415 9.82439 8.59626 10.2011 7.97178 10.4574C7.3473 10.7136 6.67847 10.8444 6.00346 10.8421L5.98646 10.8411ZM5.98646 3.51704C4.79045 3.51704 3.88044 4.52205 3.88044 5.72007C3.88044 6.91608 4.79045 7.82609 5.98746 7.82609C7.23248 7.82609 8.09449 6.91608 8.09449 5.72007C8.09549 4.52105 7.23248 3.51704 5.98646 3.51704ZM8.04649 15.1032L10.9695 17.9282C11.5445 18.5492 11.5445 19.4592 10.9695 20.0342C10.3475 20.6553 9.38851 20.6553 8.9095 20.0342L5.98746 17.1612L3.16143 20.0342C2.87442 20.3212 2.49042 20.4643 2.05841 20.4643C1.72341 20.4643 1.34041 20.3202 1.0044 20.0342C0.429394 19.4592 0.429394 18.5492 1.0044 17.9272L3.97444 15.1022C2.90189 14.7845 1.87299 14.3347 0.911399 13.7632C0.19239 13.3802 0.0493889 12.4232 0.432394 11.7041C0.9114 10.9861 1.77341 10.7951 2.54042 11.2741C3.57903 11.908 4.77223 12.2433 5.98896 12.2433C7.2057 12.2433 8.3989 11.908 9.43751 11.2741C10.2045 10.7951 11.1135 10.9861 11.5445 11.7041C11.9765 12.4232 11.7835 13.3792 11.1125 13.7632C10.2035 14.3382 9.1495 14.7692 8.04749 15.1042L8.04649 15.1032Z" fill="#202020"/>
</svg>
