<svg width="20" height="21" viewBox="0 0 20 21" fill="none" xmlns="http://www.w3.org/2000/svg">
<path d="M1.4 1.9C2.6491e-07 3.31333 0 5.57333 0 10.1V10.9C0 15.42 2.6491e-07 17.68 1.4 19.1C2.81333 20.5 5.07333 20.5 9.6 20.5H10.4C14.92 20.5 17.18 20.5 18.6 19.1C20 17.6867 20 15.4267 20 10.9V10.1C20 5.58 20 3.32 18.6 1.9C17.1867 0.5 14.9267 0.5 10.4 0.5H9.6C5.08 0.5 2.82 0.5 1.4 1.9ZM3.37333 6.58667H5.66667C5.74 10.4 7.42 12.0133 8.75333 12.3467V6.58667H10.9067V9.87333C12.22 9.73333 13.6067 8.23333 14.0733 6.58H16.22C16.0448 7.4358 15.6951 8.2463 15.1927 8.96091C14.6903 9.67551 14.046 10.2789 13.3 10.7333C14.1327 11.1476 14.8681 11.7338 15.4576 12.4532C16.0471 13.1726 16.4774 14.0088 16.72 14.9067H14.3533C13.8467 13.3267 12.58 12.1 10.9067 11.9333V14.9067H10.64C6.08 14.9067 3.48 11.7867 3.37333 6.58667Z" fill="#202020"/>
</svg>
